HIERARCHY
ROOT hip
{
  OFFSET -43.284 82.2009 -17.9111
  CHANNELS 6 Xposition Yposition Zposition Zrotation Xrotation Yrotation
  JOINT abdomen
  {
    OFFSET 0 20.6881 -0.73152
    CHANNELS 3 Zrotation Xrotation Yrotation
    JOINT chest
    {
      OFFSET 0 11.7043 -0.48768
      CHANNELS 3 Zrotation Xrotation Yrotation
      JOINT neck
      {
        OFFSET 0 22.1894 -2.19456
        CHANNELS 3 Zrotation Xrotation Yrotation
        JOINT head
        {
          OFFSET -0.24384 7.07133 1.2192
          CHANNELS 3 Zrotation Xrotation Yrotation
          JOINT leftEye
          {
            OFFSET 4.14528 8.04674 8.04672
            CHANNELS 3 Zrotation Xrotation Yrotation
            End Site
            {
              OFFSET 1 0 0
            }
          }
          JOINT rightEye
          {
            OFFSET -3.6576 8.04674 8.04672
            CHANNELS 3 Zrotation Xrotation Yrotation
            End Site
            {
              OFFSET 1 0 0
            }
          }
        }
      }
      JOINT rCollar
      {
        OFFSET -2.68224 19.2634 -4.8768
        CHANNELS 3 Zrotation Xrotation Yrotation
        JOINT rShldr
        {
          OFFSET -8.77824 -1.95073 1.46304
          CHANNELS 3 Zrotation Xrotation Yrotation
          JOINT rForeArm
          {
            OFFSET -28.1742 -1.7115 0.48768
            CHANNELS 3 Zrotation Xrotation Yrotation
            JOINT rHand
            {
              OFFSET -22.5879 0.773209 7.07136
              CHANNELS 3 Zrotation Xrotation Yrotation
              JOINT rThumb1
              {
                OFFSET -1.2192 -0.487915 3.41376
                CHANNELS 3 Zrotation Xrotation Yrotation
                JOINT rThumb2
                {
                  OFFSET -3.37035 -0.52449 3.41376
                  CHANNELS 3 Zrotation Xrotation Yrotation
                  End Site
                  {
                    OFFSET -1.78271 -1.18214 1.43049
                  }
                }
              }
              JOINT rIndex1
              {
                OFFSET -7.75947 0.938293 5.60832
                CHANNELS 3 Zrotation Xrotation Yrotation
                JOINT rIndex2
                {
                  OFFSET -2.54057 -0.884171 1.56538
                  CHANNELS 3 Zrotation Xrotation Yrotation
                  End Site
                  {
                    OFFSET -1.62519 -0.234802 1.16502
                  }
                }
              }
              JOINT rMid1
              {
                OFFSET -8.24714 1.18213 3.41376
                CHANNELS 3 Zrotation Xrotation Yrotation
                JOINT rMid2
                {
                  OFFSET -3.10165 -0.590103 1.0647
                  CHANNELS 3 Zrotation Xrotation Yrotation
                  End Site
                  {
                    OFFSET -2.48547 -0.328903 0.83742
                  }
                }
              }
              JOINT rRing1
              {
                OFFSET -8.82822 0.546677 1.51678
                CHANNELS 3 Zrotation Xrotation Yrotation
                JOINT rRing2
                {
                  OFFSET -2.60934 -0.819778 -0.0198488
                  CHANNELS 3 Zrotation Xrotation Yrotation
                  End Site
                  {
                    OFFSET -2.33842 -0.294052 0.168128
                  }
                }
              }
              JOINT rPinky1
              {
                OFFSET -8.27202 -0.0477905 -0.4584
                CHANNELS 3 Zrotation Xrotation Yrotation
                JOINT rPinky2
                {
                  OFFSET -1.82734 -0.647385 -0.700984
                  CHANNELS 3 Zrotation Xrotation Yrotation
                  End Site
                  {
                    OFFSET -1.69225 -0.51767 -0.607171
                  }
                }
              }
            }
          }
        }
      }
      JOINT lCollar
      {
        OFFSET 2.68224 19.2634 -4.8768
        CHANNELS 3 Zrotation Xrotation Yrotation
        JOINT lShldr
        {
          OFFSET 8.77824 -1.95073 1.46304
          CHANNELS 3 Zrotation Xrotation Yrotation
          JOINT lForeArm
          {
            OFFSET 28.1742 -1.7115 0.48768
            CHANNELS 3 Zrotation Xrotation Yrotation
            JOINT lHand
            {
              OFFSET 22.5879 0.773209 7.07136
              CHANNELS 3 Zrotation Xrotation Yrotation
              JOINT lThumb1
              {
                OFFSET 1.2192 -0.487915 3.41376
                CHANNELS 3 Zrotation Xrotation Yrotation
                JOINT lThumb2
                {
                  OFFSET 3.37035 -0.52449 3.41376
                  CHANNELS 3 Zrotation Xrotation Yrotation
                  End Site
                  {
                    OFFSET 1.78271 -1.18214 1.43049
                  }
                }
              }
              JOINT lIndex1
              {
                OFFSET 7.75947 0.938293 5.60832
                CHANNELS 3 Zrotation Xrotation Yrotation
                JOINT lIndex2
                {
                  OFFSET 2.54057 -0.884171 1.56538
                  CHANNELS 3 Zrotation Xrotation Yrotation
                  End Site
                  {
                    OFFSET 1.62519 -0.234802 1.16502
                  }
                }
              }
              JOINT lMid1
              {
                OFFSET 8.24714 1.18213 3.41376
                CHANNELS 3 Zrotation Xrotation Yrotation
                JOINT lMid2
                {
                  OFFSET 3.10165 -0.590103 1.0647
                  CHANNELS 3 Zrotation Xrotation Yrotation
                  End Site
                  {
                    OFFSET 2.48547 -0.328903 0.83742
                  }
                }
              }
              JOINT lRing1
              {
                OFFSET 8.82822 0.546677 1.51678
                CHANNELS 3 Zrotation Xrotation Yrotation
                JOINT lRing2
                {
                  OFFSET 2.60934 -0.819778 -0.0198488
                  CHANNELS 3 Zrotation Xrotation Yrotation
                  End Site
                  {
                    OFFSET 2.33842 -0.294052 0.168128
                  }
                }
              }
              JOINT lPinky1
              {
                OFFSET 8.27202 -0.0477905 -0.4584
                CHANNELS 3 Zrotation Xrotation Yrotation
                JOINT lPinky2
                {
                  OFFSET 1.82734 -0.647385 -0.700984
                  CHANNELS 3 Zrotation Xrotation Yrotation
                  End Site
                  {
                    OFFSET 1.69225 -0.51767 -0.607171
                  }
                }
              }
            }
          }
        }
      }
    }
  }
  JOINT rButtock
  {
    OFFSET -8.77824 4.35084 1.2192
    CHANNELS 3 Zrotation Xrotation Yrotation
    JOINT rThigh
    {
      OFFSET 0 -1.70687 -2.19456
      CHANNELS 3 Zrotation Xrotation Yrotation
      JOINT rShin
      {
        OFFSET 0 -36.8199 0.73152
        CHANNELS 3 Zrotation Xrotation Yrotation
        JOINT rFoot
        {
          OFFSET 0.73152 -45.1104 -5.12064
          CHANNELS 3 Zrotation Xrotation Yrotation
          End Site
          {
            OFFSET -1.1221 -3.69964 12.103
          }
        }
      }
    }
  }
  JOINT lButtock
  {
    OFFSET 8.77824 4.35084 1.2192
    CHANNELS 3 Zrotation Xrotation Yrotation
    JOINT lThigh
    {
      OFFSET 0 -1.70687 -2.19456
      CHANNELS 3 Zrotation Xrotation Yrotation
      JOINT lShin
      {
        OFFSET 0 -36.8199 0.73152
        CHANNELS 3 Zrotation Xrotation Yrotation
        JOINT lFoot
        {
          OFFSET -0.73152 -45.1104 -5.12064
          CHANNELS 3 Zrotation Xrotation Yrotation
          End Site
          {
            OFFSET 1.1221 -3.69964 12.103
          }
        }
      }
    }
  }
}
MOTION
Frames:	8
Frame Time:	0.00833333
-16.2519 84.5294 7.69987 0.584922 -0.000670259 -0.0103466 -0.769338 -0.0038604 -0.0215831 -0.21207 -0.00504141 -0.0367435 1.4634e-014 0 1.11816e-016 4.39097e-014 3.18055e-015 3.10601e-016 -0 0 0 -0 0 0 7.30431e-015 9.70628e-018 1.49089e-016 1.55056e-013 7.82715e-016 2.78299e-015 2.63101e-012 -7.79435e-013 -9.54166e-015 3.01331e-011 8.34796e-013 2.70347e-013 7.10721e-011 1.11746e-013 5.62958e-013 1.22736e-010 1.84472e-013 9.56552e-013 7.10794e-011 1.1291e-013 5.56597e-013 7.73091 5.47488 0.417314 7.10716e-011 1.1122e-013 5.66139e-013 2.90554 0.965183 0.102902 7.10854e-011 1.12413e-013 5.58982e-013 10.2786 0.731801 0.0259123 7.10657e-011 1.13705e-013 5.59778e-013 2.22167 -0.733487 -0.20892 7.30685e-015 9.31803e-018 -4.96962e-017 1.49962e-013 3.10601e-016 7.95139e-016 2.63549e-012 7.93151e-013 -3.18055e-015 3.01193e-011 -7.57221e-013 2.57625e-013 7.10549e-011 7.49918e-014 5.47055e-013 1.22703e-010 1.27222e-013 9.62118e-013 7.10464e-011 7.67309e-014 5.53417e-013 -7.73091 5.47488 -0.417314 7.10544e-011 7.4743e-014 5.47055e-013 -2.90554 0.965183 -0.102902 7.1042e-011 7.5737e-014 5.55007e-013 -10.2786 0.731801 -0.0259123 7.10596e-011 7.59357e-014 5.50236e-013 -2.22167 -0.733487 0.20892 -2.03217e-016 0 -3.88251e-019 -0.0540238 -2.09675 -0.0177061 -0.00903933 -1.7549 -0.0760355 -0.528815 3.85119 0.139759 2.03217e-016 0 3.88251e-019 -1.11498 -4.98912 0.0938629 0.00115223 3.48415 -0.00506388 0.537128 1.50464 -0.0922954 
-22.7169 82.8369 1.43929 10.3556 -14.8781 -24.5235 -2.03078 -1.25707 1.48197 -1.95823 2.72649 0.536139 1.6481 3.22528 2.51726 -47.0579 6.50303 5.04172 -0 0 0 -0 0 0 3.13883e-014 5.07802e-014 -1.64584e-014 23.3745 7.222 2.86485 -6.79521 -3.86114 9.63942 0.00587141 1.69983 0.238515 -2.55028e-011 3.82696e-011 -1.94489e-010 -4.44663e-011 6.60133e-011 -3.35543e-010 -2.54971e-011 3.82711e-011 -1.94496e-010 7.73091 5.47488 0.417314 -2.55026e-011 3.82693e-011 -1.94486e-010 2.90554 0.965183 0.102902 -2.5492e-011 3.82697e-011 -1.94492e-010 10.2786 0.731801 0.0259123 -2.55073e-011 3.82709e-011 -1.94489e-010 2.22167 -0.733487 -0.20892 3.13955e-014 5.0785e-014 -1.6715e-014 -17.9798 11.3922 -4.74616 6.4483 -3.57114 -9.27805 -0.000894847 0.663552 -0.0932335 -2.55239e-010 1.11382e-010 -1.26023e-010 -4.4288e-010 1.92771e-010 -2.17355e-010 -2.55246e-010 1.11383e-010 -1.26015e-010 -7.73091 5.47488 -0.417314 -2.55239e-010 1.11382e-010 -1.26023e-010 -2.90554 0.965183 -0.102902 -2.55251e-010 1.11382e-010 -1.26018e-010 -10.2786 0.731801 -0.0259123 -2.55235e-010 1.11383e-010 -1.26025e-010 -2.22167 -0.733487 0.20892 -2.03217e-016 0 -3.88251e-019 -3.03958 -7.08149 0.941085 0.0574784 10.1743 0.148844 -1.17558 -4.01845 -4.39909 2.03217e-016 0 3.88251e-019 0.911512 -8.33469 0.193332 -0.023951 12.1682 -0.170053 1.32314 -5.34006 5.76895 
-22.7261 82.7281 1.46612 8.02014 -21.3748 -53.7091 -3.29191 -2.57787 3.07472 -3.86569 5.61282 1.14627 3.09057 6.60234 5.1902 -98.0623 13.2304 10.5809 -0 0 0 -0 0 0 5.52562e-014 8.55389e-014 -3.53992e-014 47.2779 14.7937 6.04718 -12.585 -7.57905 19.9675 -0.00333728 3.49726 0.491439 -1.06035e-010 7.96981e-011 -3.89523e-010 -1.83891e-010 1.37512e-010 -6.72101e-010 -1.06031e-010 7.96999e-011 -3.89531e-010 7.73091 5.47488 0.417314 -1.06034e-010 7.9698e-011 -3.89522e-010 2.90554 0.965183 0.102902 -1.06027e-010 7.96974e-011 -3.89525e-010 10.2786 0.731801 0.0259123 -1.06038e-010 7.96986e-011 -3.89521e-010 2.22167 -0.733487 -0.20892 5.52716e-014 8.55493e-014 -3.57191e-014 -34.7806 23.17 -10.4186 12.0235 -7.03449 -19.2 0.000507764 1.36482 -0.191809 -5.84717e-010 2.27158e-010 -2.53675e-010 -1.01405e-009 3.93138e-010 -4.3757e-010 -5.84721e-010 2.27159e-010 -2.53665e-010 -7.73091 5.47488 -0.417314 -5.84716e-010 2.27159e-010 -2.53673e-010 -2.90554 0.965183 -0.102902 -5.84727e-010 2.27158e-010 -2.53673e-010 -10.2786 0.731801 -0.0259123 -5.84712e-010 2.27159e-010 -2.53681e-010 -2.22167 -0.733487 0.20892 -2.03217e-016 0 -3.88251e-019 -6.00905 -12.3467 1.995 0.0191328 22.7938 0.414269 -3.23324 -12.226 -9.36967 2.03217e-016 0 3.88251e-019 3.06709 -11.8626 0.301522 0.00764974 21.3325 -0.361032 3.69483 -12.346 12.2006 
-22.7251 82.6191 1.4487 2.71438 -14.2387 -77.1803 -4.3562 -3.75318 4.49768 -5.61581 8.18638 1.69738 4.08659 9.60064 7.64756 -144.727 18.8886 15.9049 -0 0 0 -0 0 0 7.95563e-014 1.52321e-013 -4.96733e-014 67.8296 21.4411 9.16554 -16.6205 -10.2734 29.3676 -0.0249852 5.09913 0.718073 -2.18653e-010 1.14585e-010 -5.84592e-010 -3.78872e-010 1.97671e-010 -1.00854e-009 -2.1865e-010 1.14587e-010 -5.84601e-010 7.73091 5.47488 0.417314 -2.18651e-010 1.14586e-010 -5.84592e-010 2.90554 0.965183 0.102902 -2.18647e-010 1.14584e-010 -5.84593e-010 10.2786 0.731801 0.0259123 -2.18653e-010 1.14585e-010 -5.84588e-010 2.22167 -0.733487 -0.20892 7.95729e-014 1.52336e-013 -5.00456e-014 -47.4175 33.1454 -16.7426 15.9868 -9.59137 -28.2084 0.00379727 1.99063 -0.279851 -9.07828e-010 3.33996e-010 -3.79164e-010 -1.57404e-009 5.7806e-010 -6.53989e-010 -9.0783e-010 3.33997e-010 -3.79152e-010 -7.73091 5.47488 -0.417314 -9.07826e-010 3.33998e-010 -3.79162e-010 -2.90554 0.965183 -0.102902 -9.07837e-010 3.33996e-010 -3.79165e-010 -10.2786 0.731801 -0.0259123 -9.07823e-010 3.33998e-010 -3.79175e-010 -2.22167 -0.733487 0.20892 -2.03217e-016 0 -3.88251e-019 -8.49018 -17.0323 2.96736 -0.134723 34.0307 0.713753 -6.34406 -19.2292 -14.2543 2.03217e-016 0 3.88251e-019 5.0006 -15.0256 0.40055 0.0957614 29.5354 -0.561565 7.20467 -18.2029 18.3653 
-22.7249 82.5021 1.44866 1.27352 -3.04857 -88.2094 -5.06763 -4.57457 5.48804 -6.85538 9.98109 2.08612 4.56114 11.721 9.47769 -177.972 22.4656 19.9352 -0 0 0 -0 0 0 1.04937e-013 2.99162e-013 -5.22804e-014 81.663 25.9907 11.5829 -18.8767 -11.6614 36.0181 -0.0475694 6.2124 0.876568 -4.11483e-010 1.33119e-010 -7.79748e-010 -7.12742e-010 2.2948e-010 -1.34469e-009 -4.11482e-010 1.33122e-010 -7.79757e-010 7.73091 5.47488 0.417314 -4.11481e-010 1.3312e-010 -7.79748e-010 2.90554 0.965183 0.102902 -4.11478e-010 1.33119e-010 -7.79748e-010 10.2786 0.731801 0.0259123 -4.11483e-010 1.3312e-010 -7.79742e-010 2.22167 -0.733487 -0.20892 1.04937e-013 2.99181e-013 -5.26779e-014 -54.5391 39.5821 -22.3192 18.2463 -10.9539 -34.575 0.00723457 2.42783 -0.341415 -1.21502e-009 4.18491e-010 -4.99248e-010 -2.10608e-009 7.24368e-010 -8.60919e-010 -1.21502e-009 4.18492e-010 -4.99236e-010 -7.73091 5.47488 -0.417314 -1.21502e-009 4.18494e-010 -4.99245e-010 -2.90554 0.965183 -0.102902 -1.21503e-009 4.18491e-010 -4.99251e-010 -10.2786 0.731801 -0.0259123 -1.21502e-009 4.18493e-010 -4.99261e-010 -2.22167 -0.733487 0.20892 -2.03217e-016 0 -3.88251e-019 -10.1329 -20.287 3.6344 -0.335956 41.8132 0.98825 -9.30161 -23.736 -18.1137 2.03217e-016 0 3.88251e-019 6.35298 -17.2768 0.469777 0.200696 35.3359 -0.731163 10.482 -21.9845 23.0036 
-22.7251 82.3981 1.45333 1.30412 2.28313 -91.1167 -5.35174 -4.90967 5.85872 -7.31651 10.691 2.23415 4.55054 12.6792 10.3945 168.772 23.5318 21.6399 -0 0 0 -0 0 0 1.38059e-013 6.09674e-013 -3.65795e-014 86.9207 27.7749 12.6151 -19.6454 -12.0676 38.619 -0.0579802 6.64144 0.937916 -7.78911e-010 1.28055e-010 -1.01431e-009 -1.3489e-009 2.20311e-010 -1.74791e-009 -7.78913e-010 1.2806e-010 -1.01431e-009 7.73091 5.47488 0.417314 -7.78911e-010 1.28059e-010 -1.0143e-009 2.90554 0.965183 0.102902 -7.78909e-010 1.28057e-010 -1.0143e-009 10.2786 0.731801 0.0259123 -7.78913e-010 1.28058e-010 -1.0143e-009 2.22167 -0.733487 -0.20892 1.3801e-013 6.09695e-013 -3.69631e-014 -56.9027 41.9015 -24.8475 19.0262 -11.3702 -37.0682 0.0088702 2.60393 -0.36623 -1.56071e-009 4.84046e-010 -6.39741e-010 -2.70418e-009 8.38e-010 -1.10277e-009 -1.56071e-009 4.84048e-010 -6.39728e-010 -7.73091 5.47488 -0.417314 -1.56071e-009 4.8405e-010 -6.39737e-010 -2.90554 0.965183 -0.102902 -1.56072e-009 4.84047e-010 -6.39743e-010 -10.2786 0.731801 -0.0259123 -1.56071e-009 4.84048e-010 -6.39752e-010 -2.22167 -0.733487 0.20892 -2.03217e-016 0 -3.88251e-019 -10.7943 -21.5511 3.78341 -0.440891 44.7495 1.11369 -10.6666 -25.1148 -19.9327 2.03217e-016 0 3.88251e-019 6.87518 -18.2634 0.490814 0.257521 37.7945 -0.813185 12.0051 -23.4677 24.9177 
-22.7237 82.3115 1.46062 1.30467 1.66957 -90.8248 -5.34482 -4.8993 5.7855 -7.20962 10.6265 2.20729 4.26447 12.8226 10.6378 170.08 22.937 21.5475 -0 0 0 -0 0 0 1.76415e-013 1.03464e-012 -7.89548e-015 86.2753 27.6346 12.5292 -19.5481 -12.0096 38.2932 -0.0565709 6.58182 0.929389 -1.26809e-009 1.06169e-010 -1.27514e-009 -2.19584e-009 1.81933e-010 -2.19583e-009 -1.26809e-009 1.06177e-010 -1.27514e-009 7.73091 5.47488 0.417314 -1.26809e-009 1.06176e-010 -1.27513e-009 2.90554 0.965183 0.102902 -1.26809e-009 1.06175e-010 -1.27513e-009 10.2786 0.731801 0.0259123 -1.26809e-009 1.06177e-010 -1.27512e-009 2.22167 -0.733487 -0.20892 1.76294e-013 1.03466e-012 -8.23714e-015 -56.7229 41.5754 -24.5469 18.9306 -11.3146 -36.763 0.00874249 2.59341 -0.364746 -1.93101e-009 5.35485e-010 -7.9348e-010 -3.34447e-009 9.27273e-010 -1.36726e-009 -1.93101e-009 5.35488e-010 -7.93467e-010 -7.73091 5.47488 -0.417314 -1.93101e-009 5.35489e-010 -7.93475e-010 -2.90554 0.965183 -0.102902 -1.93102e-009 5.35487e-010 -7.93478e-010 -10.2786 0.731801 -0.0259123 -1.93101e-009 5.35487e-010 -7.93485e-010 -2.22167 -0.733487 0.20892 -2.03217e-016 0 -3.88251e-019 -10.7947 -21.3963 3.54409 -0.423399 44.2255 1.08921 -10.5433 -24.3942 -20.1093 2.03217e-016 0 3.88251e-019 6.80166 -18.3463 0.476329 0.257774 37.8653 -0.816493 11.9264 -23.4915 24.7192 
-22.7212 82.2472 1.46853 1.29254 -1.33259 -89.2801 -5.21378 -4.74699 5.54809 -6.89255 10.2468 2.11507 3.91723 12.6137 10.5665 177.22 21.7304 20.7454 -0 0 0 -0 0 0 2.06897e-013 1.42284e-012 2.2823e-014 83.2943 26.7107 11.9834 -19.1038 -11.7647 36.8003 -0.0504876 6.32748 0.893023 -1.70628e-009 7.86785e-011 -1.48363e-009 -2.95455e-009 1.33934e-010 -2.55365e-009 -1.70629e-009 7.86893e-011 -1.48364e-009 7.73091 5.47488 0.417314 -1.70628e-009 7.86889e-011 -1.48363e-009 2.90554 0.965183 0.102902 -1.70628e-009 7.86891e-011 -1.48362e-009 10.2786 0.731801 0.0259123 -1.70629e-009 7.86902e-011 -1.48361e-009 2.22167 -0.733487 -0.20892 2.06707e-013 1.42286e-012 2.25326e-014 -55.4912 40.2106 -23.1299 18.4855 -11.0709 -35.3439 0.0078702 2.50349 -0.352074 -2.2139e-009 5.61532e-010 -9.07756e-010 -3.8333e-009 9.72592e-010 -1.56369e-009 -2.2139e-009 5.61537e-010 -9.07743e-010 -7.73091 5.47488 -0.417314 -2.2139e-009 5.61537e-010 -9.0775e-010 -2.90554 0.965183 -0.102902 -2.2139e-009 5.61535e-010 -9.07751e-010 -10.2786 0.731801 -0.0259123 -2.2139e-009 5.61534e-010 -9.07755e-010 -2.22167 -0.733487 0.20892 -2.03217e-016 0 -3.88251e-019 -10.5081 -20.6732 3.18346 -0.359357 42.3365 1.00745 -9.82189 -22.9045 -19.598 2.03217e-016 0 3.88251e-019 6.4971 -18.0485 0.451194 0.233415 36.9479 -0.786076 11.1893 -22.9166 23.6679 
